<?xml version="1.0" encoding="utf-8"?>
<!-- Generator: Adobe Illustrator 27.5.0, SVG Export Plug-In . SVG Version: 6.00 Build 0)  -->
<svg version="1.1" xmlns="http://www.w3.org/2000/svg" xmlns:xlink="http://www.w3.org/1999/xlink" x="0px" y="0px"
	 viewBox="0 0 750 500" style="enable-background:new 0 0 750 500;" xml:space="preserve">
<g id="BACKGROUND">
	<rect x="0.375" style="fill:#F1A04C;" width="749.625" height="400.748"/>
	<rect style="fill:#F0863F;" width="749.625" height="50.03"/>
	<polygon style="fill:#DFE6FF;" points="0.375,401 750,401 751.309,500 1.684,500 	"/>
</g>
<g id="OBJECTS">
	<g>
		<g>
			<defs>
				<rect id="SVGID_1_" x="0.375" width="749.625" height="400.748"/>
			</defs>
			<clipPath id="SVGID_00000135654364884954026650000009873063138868395942_">
				<use xlink:href="#SVGID_1_"  style="overflow:visible;"/>
			</clipPath>
			<g style="clip-path:url(#SVGID_00000135654364884954026650000009873063138868395942_);">
				<rect x="478.314" y="187.029" style="fill:#FFFFFF;" width="89.42" height="89.419"/>
				<rect x="671.688" y="-6.345" style="fill:#FFFFFF;" width="89.42" height="89.419"/>
				<rect x="574.535" y="90.342" style="fill:#FFFFFF;" width="89.42" height="89.42"/>
				<rect x="478.314" y="90.342" style="fill:#FFFFFF;" width="89.42" height="89.42"/>
				<rect x="575.001" y="187.029" style="fill:#FFFFFF;" width="89.42" height="89.419"/>
				<rect x="575.001" y="-6.345" style="fill:#FFFFFF;" width="89.42" height="89.419"/>
				<rect x="478.314" y="-6.345" style="fill:#FFFFFF;" width="89.42" height="89.419"/>
				<rect x="381.628" y="187.029" style="fill:#FFFFFF;" width="89.419" height="89.419"/>
				<rect x="381.628" y="-6.345" style="fill:#FFFFFF;" width="89.419" height="89.419"/>
				<rect x="381.628" y="90.342" style="fill:#FFFFFF;" width="89.419" height="89.42"/>
				<rect x="671.688" y="187.029" style="fill:#FFFFFF;" width="89.42" height="89.419"/>
				<rect x="671.688" y="90.342" style="fill:#FFFFFF;" width="89.42" height="89.42"/>
				<g>
					<rect x="701.625" y="43.343" style="fill:#C8D4FF;" width="59.483" height="234.649"/>
					<rect x="716.398" y="56" style="fill:#ACBEFF;" width="44.71" height="11.307"/>
					<rect x="716.398" y="77.421" style="fill:#ACBEFF;" width="44.71" height="11.307"/>
					<rect x="716.398" y="98.842" style="fill:#ACBEFF;" width="44.71" height="11.307"/>
					<rect x="716.398" y="120.262" style="fill:#ACBEFF;" width="44.71" height="11.307"/>
					<rect x="716.398" y="141.683" style="fill:#ACBEFF;" width="44.71" height="11.307"/>
					<rect x="716.398" y="163.104" style="fill:#ACBEFF;" width="44.71" height="11.307"/>
					<rect x="716.398" y="184.525" style="fill:#ACBEFF;" width="44.71" height="11.307"/>
					<rect x="716.398" y="205.946" style="fill:#ACBEFF;" width="44.71" height="11.307"/>
					<rect x="716.398" y="227.367" style="fill:#ACBEFF;" width="44.71" height="11.307"/>
					<rect x="716.398" y="248.787" style="fill:#ACBEFF;" width="44.71" height="11.308"/>
				</g>
				<g>
					<path style="fill:#F1A04C;" d="M719.39,278.46c-4.32-32.43-22.273-61.814-44.945-85.4
						c-22.672-23.586-50.007-42.085-77.118-60.398c1.935,13.857,4.912,27.568,8.896,40.98c2.899,9.758,6.387,19.473,12.045,27.935
						c16.147,24.148,46.63,33.868,75.215,39.039c2.69,0.487,5.512,1.004,7.642,2.718c1.671,1.344,2.733,3.287,3.69,5.206
						c4.906,9.839,8.175,20.492,9.634,31.389L719.39,278.46z"/>
					<path style="fill:#F1A04C;" d="M723.029,277.496c-3.419-31.995-9.916-63.661-19.372-94.418
						c-10.856-35.311-25.558-69.299-40.228-103.202c5.776,37.246,0.444,77.126,16.527,111.213
						c7.147,15.148,18.125,28.123,26.768,42.47c8.643,14.347,15.064,31.267,11.628,47.66L723.029,277.496z"/>
					<path style="fill:#F1A04C;" d="M721.735,282.834c0.301-14.524,7.073-28.027,13.693-40.958
						c6.416-12.532,12.917-25.193,22.062-35.898c7.778-9.106,17.271-16.561,26.695-23.95c17.095-13.405,34.189-26.81,51.284-40.214
						c-4.912,16.401-11.763,32.22-20.366,47.022c-17.074,29.379-44.103,56.208-77.9,59.733c-5.853,9.642-9.274,20.746-9.863,32.01
						L721.735,282.834z"/>
				</g>
				<path style="fill:#F1A04C;" d="M387.891,278.719c-2.196-6.527,3.599-22.627,4.871-28.431
					c3.567-16.266,7.407-32.676,14.487-47.221c11.22-23.053,29.64-39.631,47.57-55.568c1.559,16.47-2.523,32.897-6.952,48.609
					c-3.738,13.259-8.096,27.011-16.963,36.181c-9.142,9.454-19.829,11.604-31.351,12.892c-0.653,0.073-1.353,0.169-1.847,0.682
					c-0.381,0.395-0.579,0.979-0.76,1.54c-3.503,10.819-6.004,22.098-7.442,33.566C388.749,280.491,388.227,279.717,387.891,278.719
					z"/>
				<path style="fill:#F1A04C;" d="M414.015,86.554c-13.703,23.964-26.761,48.919-31.571,76.102
					c-3.66,20.686-2.399,41.887-1.127,62.855c0.499,8.223,1.03,16.599,4,24.283c0.505,1.307,1.089,2.641,1.039,4.042
					c-0.036,1.01-0.402,1.976-0.764,2.92c-3.005,7.845-6.01,15.69-9.014,23.536c2.233,0.232,4.466,0.575,6.699,0.942
					c8.405-23.015,14.983-46.697,19.598-70.761C410.697,169.697,412.93,128.061,414.015,86.554z"/>
				<path style="fill:#00389A;" d="M671.688-13.612h-7.267h-89.42h-7.267h-89.42h-7.267h-96.686v96.687v7.267v89.42v7.267v96.687
					h96.686h7.267h89.42h7.267h89.42h7.267h96.687v-3.634v-93.053v-3.633v-3.633v-89.42v-3.633v-3.634v-96.687H671.688z
					 M381.628,179.762v-89.42h89.419l0,89.42H381.628z M381.628,83.075V-6.345h89.419l0,89.419H381.628z M478.314,276.448v-89.419
					h89.42l0,89.419H478.314z M478.314,179.762v-89.42h89.42l0,89.42H478.314z M478.314,83.075V-6.345h89.42l0,89.419H478.314z
					 M575.001,276.448v-89.419h89.42v89.419H575.001z M575.001,179.762v-89.42h89.42v89.42H575.001z M575.001,83.075V-6.345h89.42
					v89.419H575.001z M761.108,276.448h-89.42v-89.419h89.42V276.448z M671.688,179.762v-89.42h89.42l0,89.42H671.688z
					 M761.108,83.075h-89.42V-6.345h89.42V83.075z M381.628,276.448v-89.419h89.419l0,89.419"/>
			</g>
		</g>
		<path style="fill:#ACBEFF;" d="M265.077,482H43.107c-10.029,0-18.159-8.13-18.159-18.159v0c0-10.029,8.13-18.159,18.159-18.159
			h221.97c10.029,0,18.159,8.13,18.159,18.159v0C283.236,473.87,275.106,482,265.077,482z"/>
		<path style="fill:#ACBEFF;" d="M665.917,470.685h-327.48c-7.709,0-13.958-6.249-13.958-13.958l0,0
			c0-7.709,6.249-13.958,13.958-13.958h327.48c7.709,0,13.958,6.249,13.958,13.958l0,0
			C679.875,464.436,673.626,470.685,665.917,470.685z"/>
		<g>
			<g>
				<path style="fill:#FFFFFF;" d="M80.585,61.92v131.07h100.87V61.92H80.585z M174.875,186.41h-87.72V68.49h87.72V186.41z"/>
				<path style="fill:#F0863F;" d="M87.155,186.41h87.72v-17.105c-28.597-26.024-56.432-52.866-87.72-75.163V186.41z"/>
				<path style="fill:#F1A04C;" d="M87.155,68.49v25.652c31.288,22.297,59.123,49.139,87.72,75.163V68.49H87.155z"/>
				<path style="fill:#C8D4FF;" d="M174.875,68.49v42.05c-3.04,0.96-6.28,1.47-9.63,1.47c-17.74,0-32.13-14.39-32.13-32.13
					c0-4.01,0.74-7.85,2.08-11.39H174.875z"/>
				<path style="fill:#FFFFFF;" d="M188.495,34.02v66.57h66.58V34.02H188.495z M248.495,94.02h-53.42V40.6h53.42V94.02z"/>
				<path style="fill:#C8D4FF;" d="M195.075,40.6v18.861c8.405-6.5,17.02-12.758,25.773-18.861H195.075z"/>
				<path style="fill:#00389A;" d="M248.495,52.632c-18.143,7.468-35.915,15.728-53.42,24.971V94.02h19.965
					c10.968-9.311,22.144-18.363,33.455-27.289V52.632z"/>
				<path style="fill:#F1A04C;" d="M248.495,40.6h-27.647c-8.754,6.103-17.369,12.361-25.773,18.861v18.142
					c17.505-9.243,35.277-17.503,53.42-24.971V40.6z"/>
				<path style="fill:#C8D4FF;" d="M248.495,66.731c-11.311,8.926-22.487,17.978-33.455,27.289h33.455V66.731z"/>
				<path style="fill:#FFFFFF;" d="M188.495,108.94v41.92h92.85v-41.92H188.495z M274.775,144.28h-79.7v-28.76h79.7V144.28z"/>
				<path style="fill:#00389A;" d="M195.075,115.52v28.76h34.795c-7.508-9.884-14.751-19.965-23.407-28.76H195.075z"/>
				<path style="fill:#F1A04C;" d="M206.463,115.52c8.656,8.795,15.899,18.876,23.407,28.76h19.662
					c-8.156-9.98-16.739-19.613-26.027-28.76H206.463z"/>
				<path style="fill:#00298B;" d="M223.505,115.52c9.288,9.147,17.871,18.78,26.027,28.76h17.143
					c-7.901-9.554-16.357-18.771-23.926-28.76H223.505z"/>
				<path style="fill:#00389A;" d="M274.775,115.52h-32.026c7.569,9.989,16.026,19.206,23.926,28.76h8.099V115.52z"/>
			</g>
			<g>
				<rect x="93.835" y="68.49" style="fill:#00389A;" width="7.179" height="117.92"/>
				<rect x="108.18" y="68.49" style="fill:#00389A;" width="7.179" height="117.92"/>
				<rect x="122.526" y="68.49" style="fill:#00389A;" width="7.179" height="117.92"/>
			</g>
		</g>
		<g>
			<g>
				<g>
					<polygon style="fill:#FFFFFF;" points="288.276,206.193 260.835,206.193 253.478,243.69 280.92,243.69 					"/>
					<polygon style="fill:#00389A;" points="283.236,210.443 264.207,210.443 258.518,239.439 277.547,239.439 					"/>
				</g>
				<path style="fill:#C8D4FF;" d="M285.357,221.076c-0.054,0.277,6.665,22.614,6.665,22.614H280.92L285.357,221.076z"/>
			</g>
			<g>
				<g>
					<rect x="229.772" y="362.831" style="fill:#ACBEFF;" width="5.522" height="45.693"/>
					<rect x="226.482" y="372.191" style="fill:#00389A;" width="3.29" height="36.333"/>
					<rect x="219.909" y="377.895" style="fill:#C8D4FF;" width="6.134" height="30.629"/>
					<rect x="213.775" y="377.895" style="fill:#00389A;" width="6.134" height="30.629"/>
					<rect x="207.641" y="377.895" style="fill:#C8D4FF;" width="6.134" height="30.629"/>
					<rect x="201.506" y="373.758" style="fill:#00389A;" width="6.134" height="34.766"/>
				</g>
				<path style="fill:#FFFFFF;" d="M339.864,243.69H201.003h-4.366v4.365v50.579V303v50.579v4.365v50.579v4.365h4.366h138.861h4.365
					v-4.365v-50.579v-4.365V303v-4.366v-50.579v-4.365H339.864z M339.864,408.524H201.003v-50.579h138.861V408.524z
					 M339.864,353.579H201.003V303h138.861V353.579z M339.864,298.634H201.003v-50.579h138.861V298.634z"/>
				<g>
					
						<rect x="206.249" y="255.663" transform="matrix(0.9787 -0.2053 0.2053 0.9787 -52.3819 49.0758)" style="fill:#ACBEFF;" width="8.101" height="42.594"/>
					
						<rect x="243.992" y="271.676" transform="matrix(0.9787 -0.2053 0.2053 0.9787 -53.27 56.6892)" style="fill:#00389A;" width="5.082" height="26.721"/>
					
						<rect x="249.438" y="271.676" transform="matrix(0.9787 -0.2053 0.2053 0.9787 -53.154 57.8073)" style="fill:#FFFFFF;" width="5.082" height="26.721"/>
					
						<rect x="215.742" y="266.808" transform="matrix(0.9787 -0.2053 0.2053 0.9787 -53.3777 50.8323)" style="fill:#00389A;" width="5.038" height="31.647"/>
					
						<rect x="220.672" y="266.808" transform="matrix(0.9787 -0.2053 0.2053 0.9787 -53.2736 51.8457)" style="fill:#C8D4FF;" width="5.038" height="31.647"/>
					
						<rect x="236.743" y="260.563" transform="matrix(0.9787 -0.2053 0.2053 0.9787 -52.2811 55.1467)" style="fill:#C8D4FF;" width="5.718" height="37.888"/>
					
						<rect x="225.603" y="266.808" transform="matrix(0.9787 -0.2053 0.2053 0.9787 -53.1685 52.858)" style="fill:#ACBEFF;" width="5.038" height="31.647"/>
					
						<rect x="229.667" y="258.466" transform="matrix(0.9787 -0.2053 0.2053 0.9787 -52.2072 53.7394)" style="fill:#00389A;" width="6.358" height="39.942"/>
				</g>
				<g>
					
						<rect x="327.41" y="310.911" transform="matrix(-0.9787 -0.2053 0.2053 -0.9787 587.6499 725.3932)" style="fill:#ACBEFF;" width="8.101" height="42.594"/>
					
						<rect x="292.685" y="326.924" transform="matrix(-0.9787 -0.2053 0.2053 -0.9787 514.2977 733.9346)" style="fill:#FFFFFF;" width="5.082" height="26.721"/>
					
						<rect x="287.239" y="326.924" transform="matrix(-0.9787 -0.2053 0.2053 -0.9787 503.5217 732.8164)" style="fill:#00389A;" width="5.082" height="26.721"/>
					
						<rect x="320.98" y="322.056" transform="matrix(-0.9787 -0.2053 0.2053 -0.9787 570.7338 734.9796)" style="fill:#00389A;" width="5.038" height="31.647"/>
					
						<rect x="316.05" y="322.056" transform="matrix(-0.9787 -0.2053 0.2053 -0.9787 560.9783 733.9673)" style="fill:#C8D4FF;" width="5.038" height="31.647"/>
					
						<rect x="299.298" y="315.811" transform="matrix(-0.9787 -0.2053 0.2053 -0.9787 529.1511 724.4138)" style="fill:#FFFFFF;" width="5.718" height="37.888"/>
					
						<rect x="311.119" y="322.056" transform="matrix(-0.9787 -0.2053 0.2053 -0.9787 551.2227 732.955)" style="fill:#00389A;" width="5.038" height="31.647"/>
					
						<rect x="305.734" y="313.714" transform="matrix(-0.9787 -0.2053 0.2053 -0.9787 542.735 723.6849)" style="fill:#C8D4FF;" width="6.358" height="39.942"/>
				</g>
				<g>
					<rect x="334.342" y="252.942" style="fill:#FFFFFF;" width="5.522" height="45.693"/>
					<rect x="331.052" y="262.302" style="fill:#FFFFFF;" width="3.29" height="36.333"/>
					<rect x="324.479" y="268.005" style="fill:#00389A;" width="6.134" height="30.629"/>
					<rect x="318.345" y="268.005" style="fill:#C8D4FF;" width="6.134" height="30.629"/>
					<rect x="312.21" y="268.005" style="fill:#00389A;" width="6.134" height="30.629"/>
					<rect x="306.076" y="263.869" style="fill:#FFFFFF;" width="6.134" height="34.766"/>
				</g>
				<g>
					<rect x="229.268" y="307.887" style="fill:#C8D4FF;" width="5.522" height="45.693"/>
					<rect x="225.978" y="317.247" style="fill:#FFFFFF;" width="3.29" height="36.333"/>
					<rect x="219.405" y="322.95" style="fill:#00389A;" width="6.134" height="30.629"/>
					<rect x="213.271" y="322.95" style="fill:#C8D4FF;" width="6.134" height="30.629"/>
					<rect x="207.137" y="322.95" style="fill:#FFFFFF;" width="6.134" height="30.629"/>
					<rect x="201.003" y="318.813" style="fill:#00389A;" width="6.134" height="34.766"/>
				</g>
				<g>
					<rect x="258.436" y="315.336" style="fill:#ACBEFF;" width="4.62" height="38.243"/>
					<rect x="255.684" y="323.17" style="fill:#00389A;" width="2.752" height="30.409"/>
					<rect x="250.185" y="327.944" style="fill:#00389A;" width="5.132" height="25.635"/>
					<rect x="245.053" y="327.944" style="fill:#C8D4FF;" width="5.132" height="25.635"/>
					<rect x="239.922" y="327.944" style="fill:#00389A;" width="5.132" height="25.635"/>
					<rect x="234.79" y="324.482" style="fill:#FFFFFF;" width="5.132" height="29.098"/>
				</g>
				<g>
					<rect x="258.94" y="370.281" style="fill:#FFFFFF;" width="4.62" height="38.243"/>
					<rect x="256.188" y="378.115" style="fill:#00389A;" width="2.752" height="30.409"/>
					<rect x="250.689" y="382.889" style="fill:#FFFFFF;" width="5.132" height="25.635"/>
					<rect x="245.557" y="382.889" style="fill:#00389A;" width="5.132" height="25.635"/>
					<rect x="240.426" y="382.889" style="fill:#FFFFFF;" width="5.132" height="25.635"/>
					<rect x="235.294" y="379.426" style="fill:#C8D4FF;" width="5.132" height="29.098"/>
				</g>
			</g>
			<g>
				<path style="fill:#99AFFF;" d="M222.34,206.193h-7.893c0,0-5.517,10.464-4.088,22.071c1.165,9.463,7.259,15.426,7.259,15.426
					h4.75C218.609,231.842,220.281,218.713,222.34,206.193z"/>
				<path style="fill:#C8D4FF;" d="M231.506,206.193h-8.53h-0.637c-2.058,12.52-3.731,25.65,0.027,37.497h0.61h5.359
					c0,0,6.093-5.962,7.259-15.426C237.023,216.656,231.506,206.193,231.506,206.193z"/>
				<path style="fill:#00298B;" d="M220.796,199.895c-2.472-15.2,7.106-26.517,7.106-26.517s3.113,22.948,1.367,32.917
					c-4.229,0-6.796,0-6.796,0L220.796,199.895z"/>
				<path style="fill:#00298B;" d="M213.442,186.395c-1.817-10.08,2.011-15.739,2.011-15.739l6.877,13.752l2.234,17.816h-6.608
					L213.442,186.395z"/>
				<path style="fill:#00389A;" d="M222.976,206.193c-2.806-18.263-17.027-25.968-17.027-25.968
					c-0.741,11.279,10.142,25.968,10.142,25.968H222.976z"/>
				<path style="fill:#00389A;" d="M228.024,186.143c2.925-5.659,8.767-8.935,8.767-8.935l-5.285,28.984l-7.507-0.359
					L228.024,186.143z"/>
			</g>
		</g>
		<g>
			<g>
				<polygon style="fill:#00298B;" points="520.886,112.213 480.755,112.213 491.612,86.687 510.029,86.687 				"/>
				<polyline style="fill:#00298B;" points="501.82,86.687 501.82,0 499.82,0 499.82,86.687 				"/>
			</g>
			<g>
				<polygon style="fill:#00298B;" points="240.216,112.213 200.085,112.213 210.942,86.687 229.359,86.687 				"/>
				<rect x="219.15" style="fill:#00298B;" width="2" height="86.687"/>
			</g>
			<path style="fill:#F0863F;" d="M225.182,112.213c0,3.125-2.533,5.657-5.658,5.657c-3.124,0-5.657-2.533-5.657-5.657H225.182z"/>
			<path style="fill:#F0863F;" d="M506.454,112.213c0,3.125-2.533,5.657-5.658,5.657s-5.658-2.533-5.658-5.657H506.454z"/>
		</g>
		<g>
			<polygon style="fill:#9DB2FF;" points="146.757,290.777 165.249,344.026 145.081,346.218 			"/>
			<path style="fill:#F0863F;" d="M233.835,454.24c-2.09,2.91-4.55,5.5-7.28,7.75c-3.15,2.59-6.66,4.72-10.41,6.31
				c-4.63,1.98-9.62,3.15-14.7,3.38c-0.63,0.04-1.27,0.05-1.9,0.05H86.065c-19.48,0-29.18-29.34-32.85-44.06
				c-6.31-25.34-9.39-57.3,10.33-77.55c8.49-8.71,19.62-14.47,31.48-17.35c4.36-1.06,8.82-1.73,13.29-2.02
				c26.79-1.71,53.12,9.73,74.2,26.35c13.73,10.82,25.55,23.74,36.54,37.38c5.9,7.3,11.56,14.82,17.15,22.33
				c3.41,4.57,5.33,8.83,6,12.97C243.535,437.86,240.125,445.51,233.835,454.24z"/>
			<path style="fill:#D8783F;" d="M226.555,461.99c-3.15,2.59-6.66,4.72-10.41,6.31c-1.92-11.52-4.61-22.92-8.05-34.07
				c-3.37-10.93-8.11-22.46-17.95-28.29c3.77,21.91,7.54,43.83,11.3,65.74c-0.63,0.04-1.27,0.05-1.9,0.05c0,0-20.83,0-20.83,0
				c1.256,0,0.481-12.926,0.421-14.044c-0.413-7.724-2.091-14.393-5.657-21.32c-3.901-7.576-7.89-15.108-11.965-22.592
				c-0.429-0.788-0.883-1.603-1.616-2.122c-0.557-0.394-1.228-0.582-1.885-0.764c-25.152-6.964-56.001,1.04-78.932,12.193
				c6.049-6.97,12.713-13.406,19.888-19.209c-8.258-9.033-14.507-16.228-16.834-28.686c-1.377-7.37-1.529-14.983-0.313-22.386
				c1.466-8.923,3.661-12.937,11.242-18.09l1.96-1.94c4.36-1.06,8.82-1.73,13.29-2.02c26.79-1.71,53.12,9.73,74.2,26.35
				c13.73,10.82,25.55,23.74,36.54,37.38c-0.34,3.9-0.59,7.81-0.63,11.73C218.245,425.04,223.155,443.44,226.555,461.99z"/>
			<path style="fill:#00298B;" d="M230.805,457.92h-8.16l-22.7-60.54l1.66-13.22c-2.67,1.88-12.46,6.4-30.38,9.27
				c-13.28,2.12-30.01,7.98-34.8-4.74c-2.31-6.11-3.39-11.28-3.9-15c-0.55-4.02-0.42-6.35-0.42-6.35l19.65-1.95
				c0,0,44.52-3.84,53.62-3.2c9.11,0.63,11.64,5.7,14.03,11.4C221.805,379.29,230.805,457.92,230.805,457.92z"/>
			<path style="fill:#00389A;" d="M230.805,457.92h-2.66c-2.44-15.09-8.08-54.33-9.88-62.21c-2.24-9.8-0.77-26.21-10.62-26.96
				c-9.52-0.72-69.13,4.15-75.12,4.94c-0.55-4.02-0.42-6.35-0.42-6.35l19.65-1.95c0,0,44.52-3.84,53.62-3.2
				c9.11,0.63,11.64,5.7,14.03,11.4C221.805,379.29,230.805,457.92,230.805,457.92z"/>
			<polygon style="fill:#FFFFFF;" points="200.261,457.982 219.114,467.413 219.114,470.685 188.423,470.685 190.177,457.982 			"/>
			<polygon style="fill:#FFFFFF;" points="232.834,457.982 251.686,467.413 251.686,470.685 220.996,470.685 222.749,457.982 			"/>
			<path style="fill:#99AFFF;" d="M101.674,354.248c5.747,13.1,10.745,23.65,10.745,23.65s6.817-0.764,14.304-1.659
				c-12.052-21.64-16.96-47.6-25.348-71.239C101.375,321.416,102.116,337.832,101.674,354.248z"/>
			<path style="fill:#ACBEFF;" d="M155.165,369.137c0,0-7.516-71.139-7.954-75.878c-0.072-0.784-0.2-1.624-0.453-2.482
				c-18.928-9.872-44.992-6.819-59.669,8.68c-1.163,2.214-1.916,4.397-2.262,6.394c-1.03,5.936,8.668,29.751,16.848,48.397
				c0.442-16.416-0.299-32.832-0.299-49.248c8.388,23.639,13.296,49.599,25.348,71.239c8.657-1.035,18.211-2.244,19.172-2.652
				L155.165,369.137z"/>
			<path style="fill:#C8D4FF;" d="M146.757,290.777c-1.279-4.33-5.838-9.118-23.558-9.439c-19.782-0.359-31.387,9.133-36.111,18.119
				C101.765,283.958,127.829,280.905,146.757,290.777z"/>
			<path style="fill:#ACBEFF;" d="M100.202,304.895c-2.047-4.392-5.144-6.806-9.989-5.404c-10.726,3.105-6.914,33.284-2.838,54.392
				c3.884-2.748,8.103-4.708,12.78-5.895C99.118,333.603,98.875,319.498,100.202,304.895z"/>
			<path style="fill:#C8D4FF;" d="M103.298,317.125c-0.644-4.667-1.584-8.987-3.095-12.23c-1.327,14.604-1.085,28.708-0.047,43.093
				c1.371-0.348,2.776-0.638,4.229-0.851C104.501,339.261,104.487,325.75,103.298,317.125z"/>
			<path style="fill:#FFAE65;" d="M171.755,361.67l-23.27,4.04l-56.52,8.75c0,0-2.33-8.9-4.59-20.58c3.88-2.75,8.1-4.71,12.78-5.89
				l0.01-0.01c1.36-0.35,2.77-0.63,4.22-0.84c-0.06,3.79-0.14,6.28-0.14,6.28l43.84,3.94c0,0,6.92-2.13,11.14-2.16
				c2.43-0.02,6.22,2.14,9,3.96C170.265,360.51,171.755,361.67,171.755,361.67z"/>
			<path style="fill:#FFCE89;" d="M168.225,359.16l-9.6,1.75c0,0-58.13-1.91-59.33-1.16c-1.21,0.76-0.67-11.25,0.86-11.76l0.01-0.01
				c1.36-0.35,2.77-0.63,4.22-0.84c-0.06,3.79-0.14,6.28-0.14,6.28l43.84,3.94c0,0,6.92-2.13,11.14-2.16
				C161.655,355.18,165.445,357.34,168.225,359.16z"/>
			<path style="fill:#00389A;" d="M200.265,457.98h-10.09l-18.14-56.38l0.55-9.07c0,0-19.63,8.65-31.91,9.53
				c-12.27,0.88-19.33,0.43-23.72-12.28c-1.96-5.54-5.19-12.95-5.19-12.95s4.95-1.38,12.16-3.32c17.43-4.69,48.07-12.62,53.96-12.17
				c8.33,0.64,11.67,1.08,13.86,6.78C193.945,373.82,200.265,457.98,200.265,457.98z"/>
			<path style="fill:#00298B;" d="M195.945,457.98h-5.77l-18.14-56.38l0.55-9.07c0,0-19.63,8.65-31.91,9.53
				c-12.27,0.88-19.33,0.43-23.72-12.28c-1.96-5.54-5.19-12.95-5.19-12.95s4.95-1.38,12.16-3.32l1.26,0.25
				c4.19,8.49,6.28,13.13,11.24,14.93c4.95,1.81,46.57-5.8,46.57-5.8l-4.5,8.25C178.495,391.14,192.565,443.35,195.945,457.98z"/>
			<path style="fill:#C8D4FF;" d="M139.019,367.175l5.437-35.835c0.305-1.93,1.919-3.383,3.871-3.484l51.979-2.697
				c1.774-0.092,3.175,1.487,2.871,3.238l-5.786,33.386L139.019,367.175z"/>
			<path style="fill:#FFFFFF;" d="M177.2,344.301c0,2.207-1.686,4.207-3.766,4.465c-2.08,0.259-3.765-1.321-3.765-3.528
				c0-2.207,1.686-4.207,3.765-4.466C175.514,340.514,177.2,342.094,177.2,344.301z"/>
			<path style="fill:#FFAE65;" d="M127.785,276.948c-0.524,0-20.351-4.131-20.351-4.131c0.852,6.843,0,12.93,0,12.93
				s4.433,7.678,10.324,9.751c2.543-6.229,7.145-11.059,10.077-16.863C127.895,277.603,127.892,276.948,127.785,276.948z"/>
			<path style="fill:#FFCE89;" d="M127.835,278.636c-2.931,5.804-7.533,10.634-10.077,16.863c0.861,0.303,1.752,0.488,2.665,0.51
				c7.167,0.174,5.95-3.441,5.95-3.441S127.6,282.671,127.835,278.636z"/>
			<path style="fill:#FFCE89;" d="M137.555,264.8c0.06,6.22-2.86,22.04-10.24,23.86c-2.34,0.58-6.29,0.57-10.67-2.3
				c-3.14-2.06-6.5-5.58-9.66-11.39c-4.14-7.63-2.88-20.15,4.59-25.95c3.89-3.02,9.26-4.04,13.99-2.65c4.1,1.2,7.72,4.34,10.08,8.18
				c1.59,2.57,1.84,6.16,1.89,9.14C137.545,264.07,137.555,264.44,137.555,264.8z"/>
			<path style="fill:#FFAE65;" d="M137.535,263.69c-2.53,0.76-5.63-0.23-6.63-2.67c-0.57,2.8-2.82,5.2-5.58,5.94
				c-2.77,0.75-5.91-0.19-7.81-2.33c-1.86,7.07-2.16,14.54-0.87,21.73c-3.14-2.06-6.5-5.58-9.66-11.39
				c-4.14-7.63-2.88-20.15,4.59-25.95c3.89-3.02,9.26-4.04,13.99-2.65c4.1,1.2,7.72,4.34,10.08,8.18
				C137.235,257.12,137.485,260.71,137.535,263.69z"/>
			<path style="fill:#00389A;" d="M142.115,261.28c-2.77,1.41-6.37,0.82-8.71-1.23c0.01,0.04,0.02,0.08,0.04,0.12
				c0.03,0.1,0.06,0.21,0.08,0.32c0,0.01,0,0.02,0.01,0.03c0.08,0.71-0.27,1.47-0.82,1.96c-0.67,0.6-1.58,0.86-2.47,1.02
				c-4.62,0.8-9.6-1.11-12.51-4.79c0,0.06-0.01,0.11-0.02,0.17c-0.46,3.32-1.03,6.59-2.21,9.74c-0.01-3.74-4.51-6.18-5.82-1.62
				c-1.31,4.56,1.13,5.82,1.13,5.82s-3.01,7.06-6.38,2.37c-3.08-4.27-3.27-12.04-2.8-17.06c0.37-3.93,1.35-9.43,3.74-13.02
				l0.01-0.01c0.34-0.51,0.71-0.98,1.11-1.41c2.15-2.27,5.03-3.52,8.15-3.37c0.9,0.04,7.76,1.58,6.22,3.56
				c2.53-3.25,6.96-3.6,10.68-2.69c3.51,0.85,6.2,3.7,6.4,7.5c3,0.11,6.82,1.63,7.73,4.75
				C146.535,256.43,144.895,259.87,142.115,261.28z"/>
			<path style="fill:#00298B;" d="M138.815,254.95c0.22,2.92-3.44,5.31-6.02,3.94c0.27,0.36,0.47,0.75,0.61,1.16
				c0.01,0.04,0.02,0.08,0.04,0.12c0.03,0.1,0.06,0.21,0.08,0.32c0,0.01,0,0.02,0.01,0.03c0.08,0.71-0.27,1.47-0.82,1.96
				c-0.67,0.6-1.58,0.86-2.47,1.02c-4.62,0.8-9.6-1.11-12.51-4.79c0,0.06-0.01,0.11-0.02,0.17c-0.46,3.32-1.03,6.59-2.21,9.74
				c-0.01-3.74-4.51-6.18-5.82-1.62c-1.31,4.56,1.13,5.82,1.13,5.82s-3.01,7.06-6.38,2.37c-3.08-4.27-3.27-12.04-2.8-17.06
				c0.37-3.93,1.35-9.43,3.74-13.02l0.01-0.01c0.82-0.58,1.72-1.05,2.67-1.37c3.04-1.04,6.55-0.61,9.26,1.13
				c-1.42,1.46-2.07,3.62-1.71,5.62c2.43-3.96,7.18-6.37,11.81-6c1.9,0.16,3.87,0.82,5.06,2.31c1.19,1.49,1.27,3.94-0.2,5.16
				C134.625,250.22,138.595,252.04,138.815,254.95z"/>
			<path style="fill:#00389A;" d="M126.012,268.929c2.262-0.804,1.101,2.89,0.606,3.534c-0.099,0.128-0.215,0.257-0.381,0.317
				c-0.562,0.203-0.987-0.475-1.025-0.991C125.162,271.096,125.058,269.268,126.012,268.929z"/>
			<path style="fill:#00389A;" d="M134.259,268.929c2.262-0.804,1.101,2.89,0.606,3.534c-0.099,0.128-0.215,0.257-0.381,0.317
				c-0.562,0.203-0.987-0.475-1.025-0.991C133.409,271.096,133.305,269.268,134.259,268.929z"/>
			<path style="fill:#FFAE65;" d="M130.776,273.111c0.257,1.732,0.726,3.433,1.392,5.053c-0.763,0.098-1.548,0.023-2.279-0.218
				L130.776,273.111z"/>
			<path style="fill:#F0863F;" d="M130.686,282.287c-1.938,0.142-3.894,0.037-5.805-0.311c0.953,1.832,3.445,2.671,5.313,1.79
				L130.686,282.287z"/>
		</g>
		<g>
			<g>
				<path style="fill:#00389A;" d="M600.975,193.406c-0.634,0.77-1.267,1.54-1.901,2.309c-1.367,1.661-2.77,3.389-3.344,5.463
					c-0.719,2.597,0.015,5.493,1.688,7.605c1.673,2.113,4.206,3.462,6.858,3.943c2.268-3.305,4.293-6.776,6.053-10.377
					L600.975,193.406z"/>
				<path style="fill:#00389A;" d="M596.934,160.667c-3.188-0.412-5.961,2.781-6.175,5.988c-0.214,3.207,1.429,6.239,3.306,8.849
					c2.033,2.827,4.403,5.413,7.043,7.683L596.934,160.667z"/>
				<path style="fill:#9DB2FF;" d="M618.475,219.93c-7.68,12.53-22.67,38.4-34.02,37.42c-4.58-0.39-5.23-3.82-7.74-9.17
					c-1.44-3.08-4.25-8.96-7.16-15.06c2.07-0.85,4.13-1.77,6.07-2.86c1.76-1,3.43-2.12,4.91-3.47c4.99,6.08,9.43,11.33,9.43,11.33
					s14.9-35.48,15.72-36.38c3.25-3.55,6.26-4.72,8.75-4.3C621.035,198.56,624.045,210.84,618.475,219.93z"/>
				<path style="fill:#ACBEFF;" d="M614.435,197.44c-0.01,0.22-0.02,0.44-0.04,0.65c-0.38,4.49-2.1,8.75-3.8,12.92
					c-5.59,13.73-11.32,27.69-20.8,39.09c-4.91-6.48-9.63-13.09-14.17-19.84c1.76-1,3.43-2.12,4.91-3.47
					c4.99,6.08,9.43,11.33,9.43,11.33s14.9-35.48,15.72-36.38C608.935,198.19,611.945,197.02,614.435,197.44z"/>
				<path style="fill:#FFAE65;" d="M580.535,226.79c-1.35,1.23-2.84,2.27-4.43,3.2c-2.08,1.2-4.31,2.2-6.55,3.13
					c-4.74-9.9-9.77-20.38-9.77-20.38s-8-2.11-8.81-4.93c-0.78-2.75,0.25-12.57,3.27-13.75c0.09-0.04,0.19-0.07,0.28-0.09
					c3.23-0.67,10.91,3.5,10.51,5.11c-0.41,1.62,1.71,7.51,1.71,9.53C566.745,209.75,574.105,218.96,580.535,226.79z"/>
				<path style="fill:#FFCE89;" d="M580.535,226.79c-1.35,1.23-2.84,2.27-4.43,3.2c-3.66-5.22-7.33-10.44-10.99-15.67
					c-0.7-0.99-1.4-2-1.77-3.15c-0.64-1.94-0.26-4.05-0.37-6.1c-0.11-2.04-1.02-4.34-2.98-4.9c-0.9-0.26-1.87-0.1-2.77-0.31
					c-0.91-0.21-1.81-1.08-1.52-1.96l-1.46-3.84c0.09-0.04,0.19-0.07,0.28-0.09c3.23-0.67,10.91,3.5,10.51,5.11
					c-0.41,1.62,1.71,7.51,1.71,9.53C566.745,209.75,574.105,218.96,580.535,226.79z"/>
				<g>
					<g>
						<g>
							<g>
								<path style="fill:#00298B;" d="M636.161,327.037h-50.173v-8.403c0-1.864,1.511-3.375,3.375-3.375h43.423
									c1.864,0,3.375,1.511,3.375,3.375V327.037z"/>
								<polygon style="fill:#00298B;" points="585.988,327.037 579.227,456.819 583.497,456.819 597.375,327.037 								"/>
								<polygon style="fill:#00298B;" points="636.161,327.037 642.922,456.819 638.652,456.819 624.774,327.037 								"/>
							</g>
						</g>
						<rect x="585.988" y="403.063" style="fill:#00298B;" width="50.173" height="8.993"/>
					</g>
					<g>
						<g>
							<g>
								<path style="fill:#00298B;" d="M658.935,327.037h-50.173v-8.403c0-1.864,1.511-3.375,3.375-3.375h43.423
									c1.864,0,3.375,1.511,3.375,3.375V327.037z"/>
								<polygon style="fill:#00298B;" points="608.762,327.037 602.001,456.819 606.271,456.819 620.149,327.037 								"/>
								<polygon style="fill:#00298B;" points="658.935,327.037 665.696,456.819 661.426,456.819 647.548,327.037 								"/>
							</g>
						</g>
						<rect x="608.762" y="403.063" style="fill:#00298B;" width="50.173" height="8.993"/>
					</g>
					<path style="fill:#00298B;" d="M632.665,315.26c-21.91,0-46.93,0-46.93,0s3.97,8.14,5.58,12.85
						c1.61,4.71,8.17,61.25,8.17,61.25l-4.18,0.82l-5.84,1.15c0,0-25.03-64.29-28.1-77.77c-2.47-10.86-2.99-13.27,5.57-18.41
						c5.51-3.31,38.64-6.58,61.56-8.49c12.69-1.06,22.25-1.7,22.25-1.7C652.115,295.15,654.565,315.26,632.665,315.26z"/>
					<path style="fill:#00389A;" d="M569.555,312.88c1.97,9.5,21.97,66.54,25.75,77.3l-5.84,1.15c0,0-25.03-64.29-28.1-77.77
						c-2.47-10.86-2.99-13.27,5.57-18.41c5.51-3.31,38.64-6.58,61.56-8.49v10.46c0,0-43.87,1.88-49.27,3.38
						C573.825,302,567.375,302.38,569.555,312.88z"/>
					<path style="fill:#9DB2FF;" d="M589.469,391.326c0.82,1.987-5.981,16.234-5.981,16.234l-4.26,6.374l11.131,1.617l11.643-15.413
						l-2.521-10.777L589.469,391.326z"/>
					<path style="fill:#00389A;" d="M649.275,316.42c-8.2,15.71-26.05,45.11-26.05,45.11s2.56,3.42,2.54,10.27
						c-0.03,6.85-10.11,62.75-10.11,62.75h-9.16c0,0-2.12-57.61-2.76-64.89c-0.65-7.28,2.78-15.84,3.58-19.59
						c0.98-4.64,7.47-41.84,12.52-56.85c1.09-3.25,2.12-5.46,3.01-6.08l27.9-2.18C650.745,284.96,657.475,300.72,649.275,316.42z"/>
					<path style="fill:#1B4DA5;" d="M626.995,298.63c0,0-9,51-12.56,61.12c-3.03,8.62-2.11,59.53-2.81,74.8h-5.13
						c0,0-2.12-57.61-2.76-64.89c-0.65-7.28,2.78-15.84,3.58-19.59c0.98-4.64,7.47-41.84,12.52-56.85
						C622.755,294.79,626.995,298.63,626.995,298.63z"/>
					<polygon style="fill:#9DB2FF;" points="606.497,434.546 595.612,451.521 590.358,453.542 590.358,456.819 608.762,456.819 
						615.652,442.769 615.652,434.546 					"/>
					<path style="fill:#ACBEFF;" d="M650.745,284.96c-2.26,0.55-4.54,1.18-6.85,1.84c-4.89,1.4-9.86,2.94-14.81,4.08
						c-3.78,0.87-7.54,1.51-11.24,1.68c-1.08,0-8.55-25.97-9.5-28.6c-1.52-4.23-2.72-8.91-4.45-13c-2.41-5.7-9.13-8.88-8.7-15.65
						c0.1-1.74,0.63-3.42,1.14-5.09c1.74-5.74,3.24-11.55,4.51-17.41c0.87-3.98,0.77-8.74,3.24-11.99c0.35-0.46,0.76-0.89,1.22-1.28
						c4.34-3.68,12.3-5.47,17.83-5.29c10.45,0.33,15.61,10.5,18.43,22c2.56,10.39,3.2,21.87,4.1,28.17
						C647.595,257.9,649.315,271.42,650.745,284.96z"/>
					<path style="fill:#C8D4FF;" d="M629.085,290.88c-3.78,0.87-7.54,1.51-11.24,1.68c-1.08,0-8.55-25.97-9.5-28.6
						c-1.52-4.23-2.72-8.91-4.45-13c-2.41-5.7-9.13-8.88-8.7-15.65c0.1-1.74,0.63-3.42,1.14-5.09c1.74-5.74,3.24-11.55,4.51-17.41
						c0.87-3.98,0.77-8.74,3.24-11.99c0.97,9.92,0.25,20-2.09,29.69c-0.55,2.28-1.2,4.68-0.57,6.94c0.56,2.05,2.08,3.67,3.42,5.31
						c9.19,11.25,11.9,26.39,18.94,39.1C625.475,284.9,627.415,287.83,629.085,290.88z"/>
					<path style="fill:#C8D4FF;" d="M650.745,284.96c-2.26,0.55-4.54,1.18-6.85,1.84c-3.16-20.81-6.33-41.62-9.5-62.43
						c2.78-2.33,5.2-5.08,7.17-8.12c2.56,10.39,3.2,21.87,4.1,28.17C647.595,257.9,649.315,271.42,650.745,284.96z"/>
					<g>
						<g>
							<g>
								<g>
									<path style="fill:#00389A;" d="M427.143,327.037h-50.173v-8.403c0-1.864,1.511-3.375,3.375-3.375h43.423
										c1.864,0,3.375,1.511,3.375,3.375V327.037z"/>
									<polygon style="fill:#00389A;" points="376.969,327.037 370.208,456.819 374.478,456.819 388.356,327.037 									"/>
									<polygon style="fill:#00389A;" points="427.143,327.037 433.904,456.819 429.633,456.819 415.756,327.037 									"/>
								</g>
							</g>
							<rect x="376.969" y="403.063" style="fill:#00389A;" width="50.173" height="8.993"/>
						</g>
						<g>
							<g>
								<g>
									<path style="fill:#00389A;" d="M449.916,327.037h-50.173v-8.403c0-1.864,1.511-3.375,3.375-3.375h43.423
										c1.864,0,3.375,1.511,3.375,3.375V327.037z"/>
									<polygon style="fill:#00389A;" points="399.743,327.037 392.982,456.819 397.252,456.819 411.13,327.037 									"/>
									<polygon style="fill:#00389A;" points="449.916,327.037 456.677,456.819 452.407,456.819 438.529,327.037 									"/>
								</g>
							</g>
							<rect x="399.743" y="403.063" style="fill:#00389A;" width="50.173" height="8.993"/>
						</g>
					</g>
				</g>
				<path style="fill:#FFCE89;" d="M586.075,257.71c-7.55,0-13.82,0-13.82,0l-29.38-0.36c0,0,6.25-5.86,13.36-6.7
					c7.11-0.85,11.51,2.34,12.93,2.34c0.78,0,8.05-2.39,15.99-4.82c-0.11,1.55-0.12,3.21,0.04,4.87c0.13,1.56,0.41,3.13,0.86,4.61
					C586.065,257.67,586.065,257.69,586.075,257.71z"/>
				<path style="fill:#FFAE65;" d="M586.055,257.65c-8.14-0.1-25.93-0.3-43.18-0.3c5.88-3.4,23.38-1.47,24.51-1.73
					c1.14-0.25,17.81-2.58,17.81-2.58C585.325,254.6,585.605,256.17,586.055,257.65z"/>
				<path style="fill:#C8D4FF;" d="M632.315,212.74c-2.14,12.21-16.35,44.97-20.63,44.97h-25.61c-0.47-1.5-0.75-3.09-0.88-4.67
					c-0.16-1.66-0.15-3.32-0.04-4.87c6.59-2.01,13.66-4.06,17.85-4.79c1.95-3.83,4.21-14.44,7.42-24.6
					c3.61-11.48,8.43-22.38,15.34-22.29C631.435,196.56,634.445,200.53,632.315,212.74z"/>
				<path style="fill:#DDE4FF;" d="M606.355,248.06l4.4,1.94c0,0-15.47,1.7-25.56,3.04c-0.16-1.66-0.15-3.32-0.04-4.87
					c6.59-2.01,13.66-4.06,17.85-4.79c1.95-3.83,4.21-14.44,7.42-24.6l5.23,5.78L606.355,248.06z"/>
				
					<rect x="544.339" y="190.77" transform="matrix(0.9893 0.1461 -0.1461 0.9893 35.349 -78.5151)" style="fill:#C8D4FF;" width="15.435" height="21.124"/>
				
					<rect x="551.017" y="191.035" transform="matrix(0.9893 0.1461 -0.1461 0.9893 35.4058 -78.7723)" style="fill:#9DB2FF;" width="5.669" height="21.124"/>
				<g>
					<path style="fill:#FFAE65;" d="M616.375,186.874c-0.625,5.626,3.774,10.246,3.774,10.246
						c-5.635,0.996-10.279,4.459-14.461,9.073l-4.335-9.705L616.375,186.874z"/>
					<path style="fill:#FFCE89;" d="M616.375,186.874c1.615-2.405,2.594-5.182,3.312-7.989c1.062-4.156,1.528-8.789-0.54-12.547
						c-2.966-5.391-9.882-7.005-16.013-7.524c-0.826-0.07-1.672-0.128-2.471,0.088c-1.452,0.393-2.515,1.62-3.363,2.863
						c-3.484,5.109-3.896,10.602-5.029,16.482c-0.201,1.046-0.413,2.118-0.977,3.023c-0.563,0.904-1.565,1.615-2.626,1.522
						c-0.157-0.014,1.422,4.817,1.642,5.245c0.933,1.809,2.201,3.178,3.58,4.638c2.266,2.401,3.758,4.695,7.483,4.412
						C607.143,196.647,613.263,191.507,616.375,186.874z"/>
					<path style="fill:#FFAE65;" d="M608.622,198.139c-2.487-0.748-3.227-3.878-3.337-6.473c-0.143-3.391,0.066-6.797,0.622-10.145
						c0.231-1.39,0.522-2.809,0.267-4.194c-0.432-2.343-2.331-4.125-4.291-5.479c-2.128-1.47-4.47-2.556-5.319-5.186
						c-0.913-2.825-0.081-6.258,3.115-7.182c2.196-0.635,5.164,0.906,7.015,1.963c4.824,2.754,8.401,7.551,9.98,12.846
						c2.04,6.84,0.984,14.369-1.983,20.861L608.622,198.139z"/>
				</g>
				<path style="fill:#00298B;" d="M646.575,199.5c0.11,5.1-2.64,9.92-6.29,13.48c-8.99,8.78-24.02,10.48-34.84,4.18
					c-0.48-0.28-0.94-0.57-1.4-0.88c-0.17-0.9,0.83-1.51,1.63-1.95c5.42-2.98,15.03-12.3,7.78-17.99c-1.99-1.56-4.46-2.73-5.62-4.98
					c-0.82-1.61-0.82-3.5-0.81-5.31c0.04-3.52,1.53-10.72,0.14-13.88c-0.1-0.24-0.22-0.45-0.34-0.65c-1.25-1.99-3.46-2.02-5.91-3.07
					c-5.32-2.28-9.88-6.28-8.86-12.61c0.98-6.06,7.85-6.97,12.99-6.48c8.97,0.86,21.56,7.94,21.49,17.88
					c-0.01,1.44-0.28,2.94-0.87,4.48c-0.32,0.86-0.77,1.78-0.49,2.65c0.2,0.6,0.71,1.04,1.21,1.44c4.22,3.36,8.92,6.1,12.88,9.77
					C643.215,189.24,646.465,194.12,646.575,199.5z"/>
				<path style="fill:#00389A;" d="M621.485,200.783c-0.046-0.046-0.092-0.093-0.137-0.14c2.646,2.707-3.694,11.055-5.762,12.417
					c-3.07,2.02-6.54,3.41-10.14,4.1c-0.48-0.28-0.94-0.57-1.4-0.88c-0.17-0.9,0.83-1.51,1.63-1.95c5.42-2.98,15.03-12.3,7.78-17.99
					c-1.99-1.56-4.46-2.73-5.62-4.98c-0.82-1.61-0.82-3.5-0.81-5.31c0.04-3.52,1.53-10.72,0.14-13.88c-0.1-0.24-0.22-0.45-0.34-0.65
					c-1.25-1.99-3.46-2.02-5.91-3.07c-5.32-2.28-9.88-6.28-8.86-12.61c0.98-6.06,7.85-6.97,12.99-6.48
					c8.97,0.86,21.56,7.94,21.49,17.88c-4.82-4.57-10.62-8.11-16.89-10.28c-3.59-1.24-7.8-1.98-11,0.07
					c-0.58,0.37-1.13,0.85-1.41,1.48c-0.32,0.75-0.23,1.61,0.04,2.38c1.75,5.07,9.16,5.37,12.51,9.56
					c3.264,4.082-1.077,8.84,0.565,13.015c1.709,4.343,9.215,5.715,12.747,8.309c4.535,3.331,6.805,9.472,5.524,14.952
					C626.056,204.985,623.661,202.992,621.485,200.783z"/>
				<path style="fill:#00298B;" d="M595.978,176.572c0.276,1.839-2.307,3.089-2.048,0.946c0.061-0.504,0.737-2.417,1.763-1.543
					C595.876,176.131,595.945,176.357,595.978,176.572z"/>
				<path style="fill:#F0863F;" d="M594.132,190.593c1.648,0.213,3.381-0.383,4.549-1.565c0.506,0.875,0.187,2.127-0.675,2.654
					L594.132,190.593z"/>
			</g>
			<g>
				<path style="fill:#F1A04C;" d="M464.847,187.684c-9.842,7.194-12.61,52.658-12.61,52.658l-30.09,10.967l-0.96,6.402
					c0,0,33.853-0.361,38.313-0.361c4.46,0,10.344-25.331,14.506-38.136S480.131,184.011,464.847,187.684z"/>
				<path style="fill:#00298B;" d="M494.505,303.08c-0.1,1.67-0.55,5.18-1.2,9.69c-2.32,16.23-7.23,45.45-7.78,48.63
					c-0.7,4.07,2.86,11.46,1.31,22.01c-1.54,10.55-9.13,60.75-9.13,60.75h-10.73c0,0-3.48-127.05-3.84-141.31
					c-0.36-14.26-0.49-19.61-0.49-19.61l30.93-0.99C493.575,282.25,494.975,295.4,494.505,303.08z"/>
				<path style="fill:#00389A;" d="M486.835,383.41c-1.54,10.55-9.13,60.75-9.13,60.75h-5.19c2.25-15.86,9.39-54.4,9.48-59.16
					c0.12-6-1.62-8.75-1.24-12s3.73-51.85,3.73-51.85l-6.17-7.65c0,0,2.06,0.75,7.36,1.76l7.63-2.49
					c-2.32,16.23-7.23,45.45-7.78,48.63C484.825,365.47,488.385,372.86,486.835,383.41z"/>
				<path style="fill:#00298B;" d="M512.375,372c-1-1-2,3-2,2c-0.961-29.787,2.687-59.574-6.785-88.474l-23.627,1.86
					c0,0,1.069,3.834,3.785,17.938c2.715,14.104,27.149,139.731,27.149,139.731h4.58C516.055,420.703,518.688,396.351,512.375,372z"
					/>
				<path style="fill:#00389A;" d="M520.742,384.984c-0.196-10.432-4.97-17.741-4.942-21.766c0.029-4.025,0.157-50.086-0.644-57.671
					c-0.8-7.585-4.366-20.589-4.366-20.589l-7.2,0.567c9.471,28.9,5.824,58.687,6.785,88.474c0,1,1-3,2-2
					c6.313,24.351,3.68,48.703,3.102,73.054h6.152C521.63,445.054,520.938,395.416,520.742,384.984z"/>
				<polygon style="fill:#FFFFFF;" points="466.971,444.16 446.795,454.178 446.795,456.819 479.963,456.819 477.703,444.16 				"/>
				<polygon style="fill:#FFFFFF;" points="510.897,445.054 503.695,452.257 503.695,456.819 528.904,456.819 528.904,454.178 
					521.63,445.054 				"/>
				<path style="fill:#F0863F;" d="M520.558,193.995c-6.957-6.583-17.748-9.973-27.183-11.995
					c-13.013-1.735-24.519,4.811-33.216,13.757c-0.01,0.175-0.03,0.345-0.034,0.523c-0.35,17.79,1.55,80.68,2.52,86.96
					c0.4,2.6,8.6,3.94,18.39,4.37c9.85,0.43,21.31-0.06,28.04-1.11c2.72-0.43,4.67-0.95,5.42-1.54
					C509.193,258.253,526.639,216.238,520.558,193.995z"/>
				<path style="fill:#F1A04C;" d="M493.375,182c9.435,2.022,20.227,5.411,27.183,11.995c-0.124-0.452-0.24-0.91-0.383-1.345
					c-2.65-7.4-12.46-11.78-23.41-13.04c-0.39-0.05-0.78-0.09-1.17-0.12c-16.332-1.568-34.694,3.746-35.436,16.267
					C468.856,186.811,480.362,180.265,493.375,182z"/>
				<path style="fill:#F1A04C;" d="M514.495,284.96c-0.75,0.59-2.7,1.11-5.42,1.54c-0.97-6.33-0.51-24.32-0.2-26.41
					c0.38-2.53,9.75-62.98,9.75-62.98s-0.94-6.3-5.73-9.19c-4.79-2.88-14.85-5.04-16.48-4.73l0.35-3.58
					c10.95,1.26,20.76,5.64,23.41,13.04C527.375,214.51,509.085,257.71,514.495,284.96z"/>
				<rect x="338.201" y="257.711" style="fill:#F0863F;" width="254.489" height="7.363"/>
				<rect x="338.201" y="257.711" style="fill:#F1A04C;" width="142.554" height="7.363"/>
				<g>
					<path style="fill:#C8D4FF;" d="M446.565,212.742h-68.227c-1.6,0-2.823,1.428-2.577,3.01l6.541,41.96h73.505l-6.667-42.763
						C448.944,213.678,447.85,212.742,446.565,212.742z"/>
					<path style="fill:#ACBEFF;" d="M484.488,253.531h-29.332l0.652,4.18h24.499C482.617,257.711,484.488,255.84,484.488,253.531
						L484.488,253.531z"/>
				</g>
				<path style="fill:#F1A04C;" d="M518.185,224.98c-1.98,18.16-3.13,22.42-4.68,27.29c-0.34,1.07-1.69,1.85-3.63,2.41
					c-7.96,2.29-25.95,0.94-25.95,0.94l-5.59-9.86l-1.33-2.36c0.64-0.01,20.38-5.62,20.38-5.62s2.12-20.9,5-32.74
					c1.83-7.54,4.29-13.27,7.83-15.84c2.02-1.48,4.4-1.93,7.21-1.12C522.985,189.69,519.845,209.69,518.185,224.98z"/>
				<path style="fill:#FFAD5C;" d="M497.385,237.78l-0.293,2.743c0,0-2.487,0.947-2.487,0.917c0,0.01-10.48,2.81-16.27,4.32
					l-1.33-2.36C477.645,243.39,497.385,237.78,497.385,237.78z"/>
				<g>
					<rect x="531.155" y="264.994" style="fill:#00298B;" width="11.724" height="191.825"/>
					<rect x="496.782" y="264.994" style="fill:#00298B;" width="79.937" height="7.86"/>
					<polygon style="fill:#00298B;" points="576.719,456.819 496.782,456.819 496.782,451.55 536.75,442.769 576.719,451.55 					
						"/>
				</g>
				<g>
					<rect x="382.428" y="264.994" style="fill:#00298B;" width="11.724" height="191.825"/>
					<rect x="348.055" y="264.994" style="fill:#00298B;" width="79.937" height="7.86"/>
					<polygon style="fill:#00298B;" points="427.992,456.819 348.055,456.819 348.055,451.623 388.024,442.963 427.992,451.623 
											"/>
				</g>
				<path style="fill:#FFCE89;" d="M474.59,243.432c-4.194,0.301-8.794,1.607-12.999,3.586c-2.602,1.225-4.232,3.495-4.232,5.969
					h0.73c8.229-4.632,17.481-5.747,26.966-6.89C483.011,244.394,479.211,243.1,474.59,243.432z"/>
				<path style="fill:#FFAE65;" d="M485.055,246.097c-9.485,1.143-18.737,2.258-26.966,6.89h26.347c0,0,3.2-3.456,1.723-5.692
					C485.888,246.884,485.515,246.48,485.055,246.097z"/>
				<path style="fill:#FFCE89;" d="M479.963,182.318c0,0-5.588,16.932,4.525,16.557c0.475-0.018,0.933-0.087,1.383-0.18
					c-0.901-9.601-3.158-18.939-7.756-27.356L479.963,182.318z"/>
				<path style="fill:#FFAE65;" d="M496.415,161.044l-19.41,3.706l1.11,6.59c4.599,8.417,6.856,17.754,7.756,27.356
					c4.974-1.029,8.366-6.438,10.422-11.14C494.421,178.848,494.003,169.702,496.415,161.044z"/>
				<path style="fill:#FFCE89;" d="M496.782,160.973l-0.367,0.07c-2.412,8.658-1.993,17.804-0.121,26.512
					c1.711-3.91,2.499-7.331,2.499-7.331S496.125,173,496.782,160.973z"/>
				<g>
					<path style="fill:#FFCE89;" d="M489.585,178.22c-1.27,1.24-2.68,2.3-4.23,3.12c-0.3,0.16-0.6,0.3-0.89,0.43
						c-7.84,3.29-12.92-6.1-15.28-12.15c-1.66-4.26-3.04-9.11-2.92-13.78c0.02-0.74,0.07-1.49,0.18-2.22
						c0.24-1.78,0.74-3.53,1.57-5.17c3.1-6.13,10.13-10.03,17.09-8.68c5.39,1.04,8.55,4.55,10.29,8.97c1.16,2.91,1.7,6.22,1.86,9.48
						C497.595,165.15,494.815,173.17,489.585,178.22z"/>
					<path style="fill:#FFAE65;" d="M489.585,178.22c0.69-8.15-1.33-16.51-5.7-23.42c-4.54,1.55-9.36,2.24-14.15,2.03
						c-1.19-0.05-2.55-0.32-3.47-0.99c-0.53-0.39-0.91-0.9-1.01-1.59l1.19-0.63l17.68-9.35c4.2-0.14,8.2,1.63,11.27,4.47
						c1.16,2.91,1.7,6.22,1.86,9.48C497.595,165.15,494.815,173.17,489.585,178.22z"/>
				</g>
				<path style="fill:#00298B;" d="M469.233,167.18c1.209,1.919,2.519,0.015,0.975-1.536c-0.319-0.32-0.834-0.583-1.201-0.32
					c-0.423,0.303-0.237,0.96-0.01,1.428C469.075,166.912,469.154,167.054,469.233,167.18z"/>
				<path style="fill:#00298B;" d="M476.775,164.185c0.524,0.463,1.344,3.337-0.19,2.963c-0.174-0.042-0.31-0.174-0.427-0.309
					c-0.475-0.544-1.481-2.326-0.488-2.9C476.019,163.738,476.472,163.918,476.775,164.185z"/>
				<path style="fill:#00298B;" d="M496.025,167.97c-0.03-0.06-0.05-0.13-0.09-0.19c-0.87-2.02-2.08-3.89-3.56-5.51
					c1.63-2.22,1.59-5.51-0.08-7.69c-0.36-0.47-0.87-0.92-1.46-0.84c-0.75,0.1-1.09,0.99-1.23,1.74c-0.36,1.98-0.38,4.02-0.06,6
					c-1.06,0.06-1.66-1.18-1.94-2.21c-0.69-2.54-1.25-5.11-1.67-7.71c-3.35,1.74-6.88,3.13-10.51,4.16
					c-2.43,0.69-5.65,0.86-8.27,0.1c-3.04-0.89-5.28-3.03-4.52-7.11c0.02-0.09,0.03-0.17,0.05-0.25c1.36-6.26,9.29-10.02,14.73-11.8
					c1.82-0.59,4.49-1.12,7.2-1.16c4.29-0.08,8.65,1.06,9.8,5.06c0.02,0.04,0.03,0.08,0.04,0.12c0.07,0.24,0.12,0.5,0.28,0.69
					c0.3,0.35,0.83,0.36,1.28,0.46c3.17,0.67,4.47,6.3,4.71,8.96C501.255,156.62,498.805,162.95,496.025,167.97z"/>
				<path style="fill:#FFAE65;" d="M473.412,167.23c0.277,1.988,0.293,4.013,0.046,6.006c0.851-0.027,1.693-0.3,2.397-0.779
					L473.412,167.23z"/>
				<path style="fill:#F0863F;" d="M475.123,177.655c2.632,0.148,5.307-0.644,7.435-2.2c0.096,0.949-0.07,1.923-0.473,2.787
					c-0.325-0.031-0.658,0.009-0.966,0.117L475.123,177.655z"/>
				<path style="fill:#00389A;" d="M500.725,150.79c-0.24-2.66-1.54-8.29-4.71-8.96c-0.45-0.1-0.98-0.11-1.28-0.46
					c-0.16-0.19-0.21-0.45-0.28-0.69c-0.01-0.04-0.02-0.08-0.04-0.12c-0.105-0.365-0.245-0.697-0.4-1.016
					c-0.033-0.066-0.064-0.134-0.098-0.198c-0.16-0.298-0.339-0.577-0.541-0.834c-0.039-0.049-0.081-0.095-0.121-0.143
					c-0.199-0.239-0.414-0.462-0.646-0.667c-0.027-0.023-0.05-0.049-0.077-0.072c-0.254-0.216-0.529-0.408-0.817-0.587
					c-0.059-0.037-0.118-0.073-0.178-0.108c-0.292-0.17-0.595-0.326-0.913-0.463c-0.042-0.018-0.085-0.033-0.127-0.05
					c-0.299-0.123-0.609-0.232-0.927-0.327c-0.06-0.018-0.119-0.039-0.18-0.056c-0.333-0.094-0.675-0.174-1.024-0.242
					c-0.1-0.02-0.201-0.037-0.302-0.055c-0.31-0.053-0.623-0.1-0.941-0.135c-0.142-0.016-0.285-0.027-0.428-0.04
					c-0.235-0.02-0.47-0.036-0.707-0.047c-0.184-0.009-0.367-0.017-0.552-0.021c-0.08-0.002-0.161,0-0.241-0.001
					c-2.899-0.028-5.831,0.522-7.779,1.16c-5.44,1.78-13.37,5.54-14.73,11.8c0.86,0.58,1.89,0.95,2.92,1.11
					c1.89,0.3,3.81,0,5.7-0.29c-1.45,0.81-2.9,1.63-4.35,2.44c3.392,1.122,6.421-0.125,8.364-2.755
					c2.063-2.791,4.79-4.766,7.803-6.44c0.886-0.492,1.8-0.968,2.793-1.175c0.507-0.106,5.824,0.44,4.58,2.27
					c0.85-1.25,2.87-1.11,3.99-0.1c1.12,1,1.55,2.55,1.89,4.02c1.53,6.66,1.97,13.9-0.44,20.24c0.04,0.06,0.06,0.13,0.09,0.19
					C498.805,162.95,501.255,156.62,500.725,150.79z"/>
				<path style="fill:#FFAD5C;" d="M518.185,224.98c-1.98,18.16-3.13,22.42-4.68,27.29c-0.34,1.07-1.69,1.85-3.63,2.41
					c0.16-0.56,0.24-1.14,0.33-1.72c0.79-5.22,1.58-10.43,2.37-15.65c1.22-8.09,2.44-16.18,3.3-24.32
					c0.43-4.14,0.77-8.29,0.97-12.45c0.16-3.56,0.4-7.43-2.75-9.88c-1.1-0.87-2.48-1.38-3.88-1.46c2.02-1.48,4.4-1.93,7.21-1.12
					C522.985,189.69,519.845,209.69,518.185,224.98z"/>
			</g>
			<path style="fill:#FFFFFF;" d="M418.188,235.227c0.316,2.621-1.552,4.745-4.173,4.745s-5.002-2.124-5.318-4.745
				c-0.316-2.621,1.552-4.745,4.173-4.745C415.491,230.481,417.872,232.606,418.188,235.227z"/>
		</g>
	</g>
</g>
</svg>
