<svg id="Icons" xmlns="http://www.w3.org/2000/svg" viewBox="0 0 512 512"><defs><style>.cls-1{fill:#14a36d;}.cls-2{fill:#15be79;}.cls-3{fill:#aacfe5;}.cls-4{fill:#cde6f6;}.cls-5{fill:#eef9ff;}.cls-6{fill:#f39e22;}.cls-7{fill:#f9c744;}.cls-8{fill:#fff;}</style></defs><title>019-beer-export</title><circle class="cls-1" cx="256" cy="256" r="255.98"/><path class="cls-2" d="M0,255.76A255.63,255.63,0,0,1,103.44,50.44c113.54-84.25,273.87-60.52,358.12,53a254.76,254.76,0,0,1,49.93,136,76.89,76.89,0,0,0-14.24,6.88c-23.84,14.74-42,41.9-69.91,44.44-19.15,1.75-37.29-9.24-51.1-22.62s-24.87-29.51-39.4-42.12a112.53,112.53,0,0,0-157.7,10c-14.17,15.89-26.53,37.44-47.68,40-28.75,3.44-51.22-31.63-80-28.95-9.3.87-17.72,5.66-26.73,8A54.5,54.5,0,0,1,0,255.76Z"/><path class="cls-3" d="M383,91.56l-22.33,313a24.34,24.34,0,0,1-24.28,22.61H174.47a24.36,24.36,0,0,1-24.28-22.69L129,91.52a10,10,0,0,1,9.93-10.62H373.08A10,10,0,0,1,383,91.56Z"/><path class="cls-4" d="M383,91.56l-22.33,313a24.34,24.34,0,0,1-24.28,22.61H204.65a24.33,24.33,0,0,1-24.28-22.69l-21.21-313a10,10,0,0,1,9.93-10.62h204A10,10,0,0,1,383,91.56Z"/><path class="cls-5" d="M362.4,159.68h0A14.66,14.66,0,0,1,377,175.39l-6.35,89A14.67,14.67,0,0,1,356.05,278h0a14.67,14.67,0,0,1-14.64-15.71l6.35-89A14.68,14.68,0,0,1,362.4,159.68Z"/><path class="cls-5" d="M352.49,298.53h0a14.68,14.68,0,0,1,14.64,15.72l-1.42,19.92a14.68,14.68,0,0,1-14.64,13.63h0a14.67,14.67,0,0,1-14.63-15.72l1.42-19.92A14.66,14.66,0,0,1,352.49,298.53Z"/><path class="cls-6" d="M349.4,150.29,333,380.5a17.9,17.9,0,0,1-17.85,16.62H196.05a17.91,17.91,0,0,1-17.86-16.69L162.6,150.26Z"/><ellipse class="cls-7" cx="315.6" cy="217.55" rx="36.55" ry="20.71" transform="translate(79.3 519.37) rotate(-86.52)"/><ellipse class="cls-7" cx="311.54" cy="284.35" rx="22.8" ry="12.92" transform="translate(8.8 578.06) rotate(-86.52)"/><path class="cls-8" d="M349.41,150.26v0l-186.82,0a25.65,25.65,0,0,1,34.65-24,25.68,25.68,0,0,1,51.14-.54,39.82,39.82,0,0,1,44.54-3,19.87,19.87,0,0,1,39.65,1.86,19.6,19.6,0,0,1-.9,5.92A19.89,19.89,0,0,1,349.41,150.26Z"/><circle class="cls-8" cx="231.02" cy="150.29" r="11.08"/><circle class="cls-8" cx="276.24" cy="186.47" r="11.08"/><circle class="cls-8" cx="246.69" cy="219.21" r="13.16"/><circle class="cls-8" cx="269.9" cy="271.08" r="17.03"/><circle class="cls-8" cx="193.78" cy="184.76" r="17.03"/><circle class="cls-8" cx="303.95" cy="156.24" r="17.03"/><circle class="cls-8" cx="282.16" cy="328.69" r="11.08"/><circle class="cls-8" cx="201.51" cy="254.05" r="11.08"/><circle class="cls-8" cx="227.83" cy="356.83" r="14.26"/></svg>